<svg xmlns="http://www.w3.org/2000/svg" viewBox="0 0 64 64" fill="none">
  <defs>
    <linearGradient id="edge" x1="8" y1="8" x2="56" y2="56" gradientUnits="userSpaceOnUse">
      <stop stop-color="#b7ff18"/>
      <stop offset="1" stop-color="#29d94f"/>
    </linearGradient>
  </defs>
  <path d="M18 17 46 17M47 20 47 44M44 47 20 47M17 44 17 20" stroke="url(#edge)" stroke-width="4" stroke-linecap="round"/>
  <rect x="7" y="7" width="20" height="20" rx="6" fill="#17201b" stroke="#b7ff18" stroke-width="3"/>
  <rect x="37" y="7" width="20" height="20" rx="6" fill="#17201b" stroke="#b7ff18" stroke-width="3"/>
  <rect x="37" y="37" width="20" height="20" rx="6" fill="#17201b" stroke="#b7ff18" stroke-width="3"/>
  <rect x="7" y="37" width="20" height="20" rx="6" fill="#17201b" stroke="#b7ff18" stroke-width="3"/>
  <circle cx="17" cy="17" r="4" fill="#b7ff18"/>
  <path d="m43 17 4-4 4 4-4 4-4-4ZM43 47h8M47 43v8M13 47h8" stroke="#b7ff18" stroke-width="2.5" stroke-linecap="round" stroke-linejoin="round"/>
</svg>
